<svg xmlns="http://www.w3.org/2000/svg" xmlns:xlink="http://www.w3.org/1999/xlink" version="1.1" style="shape-rendering:geometricPrecision; text-rendering:geometricPrecision; image-rendering:optimizeQuality; fill-rule:evenodd; clip-rule:evenodd" viewBox="657.5 25.44 3847 4948.06">
<g><path style="opacity:0.998" fill="#000000" d="M 2986.5,25.5 C 3061.17,25.3333 3135.83,25.5 3210.5,26C 3357.56,28.005 3503.9,39.3383 3649.5,60C 3774.95,76.48 3891.95,116.813 4000.5,181C 4073.44,225.913 4137.94,281.079 4194,346.5C 4230.61,391.342 4260.94,440.342 4285,493.5C 4325.84,586.347 4353.5,683.014 4368,783.5C 4371.42,809.069 4373.75,834.735 4375,860.5C 4375.33,1804.5 4375.67,2748.5 4376,3692.5C 4376.93,3787.17 4378.27,3881.84 4380,3976.5C 4388.43,4092.36 4429.93,4194.36 4504.5,4282.5C 4407.53,4293.66 4310.53,4304.83 4213.5,4316C 4098.02,4332.63 3984.02,4356.3 3871.5,4387C 3638.27,4455.13 3423.27,4559.13 3226.5,4699C 3183.09,4731.07 3141.42,4765.4 3101.5,4802C 3046.3,4859.54 2990.8,4916.7 2935,4973.5C 2759.52,4869.35 2573.68,4788.52 2377.5,4731C 2069.56,4643.78 1757.89,4627.44 1442.5,4682C 1348.21,4697.4 1256.88,4723.07 1168.5,4759C 1095.56,4789.72 1028.56,4829.72 967.5,4879C 929.434,4909.56 892.1,4941.06 855.5,4973.5C 831.014,4949.51 806.68,4925.35 782.5,4901C 811.873,4847.09 841.373,4793.25 871,4739.5C 906.417,4684.73 946.417,4633.4 991,4585.5C 1107.62,4462.49 1234.12,4351.66 1370.5,4253C 1465.44,4184.83 1566.78,4126.83 1674.5,4079C 1747.35,4048.49 1822.02,4023.16 1898.5,4003C 1998.77,3975.6 2100.1,3952.93 2202.5,3935C 2255.16,3926.36 2307.82,3917.86 2360.5,3909.5C 2360.5,3484.17 2360.5,3058.83 2360.5,2633.5C 2251.17,2633.5 2141.83,2633.5 2032.5,2633.5C 2034.2,2833.55 2032.03,3033.55 2026,3233.5C 2016.74,3376.97 1969.74,3506.3 1885,3621.5C 1822.42,3704.75 1749.25,3777.25 1665.5,3839C 1603.11,3885.01 1537.78,3926.68 1469.5,3964C 1389.27,4002.36 1309.11,4040.86 1229,4079.5C 1202.16,4067.33 1175.66,4054.5 1149.5,4041C 1172.67,4013.83 1195.83,3986.67 1219,3959.5C 1232.59,3930.73 1242.59,3900.73 1249,3869.5C 1257.07,3832.76 1263.74,3795.76 1269,3758.5C 1273.05,3709.5 1277.05,3660.5 1281,3611.5C 1281.5,3285.5 1281.67,2959.5 1281.5,2633.5C 1189.82,2637.4 1098.16,2641.56 1006.5,2646C 922.525,2654.5 838.525,2662.66 754.5,2670.5C 760.584,2624.83 766.75,2579.17 773,2533.5C 776.357,2469.68 779.523,2405.84 782.5,2342C 778.529,2272.16 774.362,2202.32 770,2132.5C 764.701,2079.51 759.534,2026.51 754.5,1973.5C 836.189,1984.43 917.856,1995.6 999.5,2007C 1093.48,2009.04 1187.48,2010.21 1281.5,2010.5C 1283.61,1934.8 1286.45,1859.14 1290,1783.5C 1296.58,1680.83 1320.58,1582.5 1362,1488.5C 1397.35,1412.47 1445.85,1345.97 1507.5,1289C 1565.79,1236.36 1627.79,1188.69 1693.5,1146C 1755.36,1105.89 1819.03,1068.56 1884.5,1034C 1960.45,996.441 2036.62,959.274 2113,922.5C 2130.73,935.561 2147.9,949.394 2164.5,964C 2146.21,991.414 2128.04,1018.91 2110,1046.5C 2084.23,1089.81 2065.89,1136.14 2055,1185.5C 2046.06,1232.55 2039.06,1279.88 2034,1327.5C 2032.82,1346.32 2031.99,1365.15 2031.5,1384C 2032.48,1592.83 2032.82,1801.66 2032.5,2010.5C 2141.83,2010.5 2251.17,2010.5 2360.5,2010.5C 2360.5,1613.5 2360.5,1216.5 2360.5,819.5C 2236.51,821.663 2112.51,822.496 1988.5,822C 1854.17,820.333 1719.83,818.667 1585.5,817C 1449.81,815.59 1315.81,799.923 1183.5,770C 1100.17,750.783 1020.84,721.116 945.5,681C 762.978,579.552 667.145,423.719 658,213.5C 657.333,198.5 657.333,183.5 658,168.5C 665.159,128.208 671.992,87.8742 678.5,47.5C 768.579,63.458 858.579,79.958 948.5,97C 1014.58,105.442 1080.91,110.775 1147.5,113C 1201.49,114.699 1255.49,115.866 1309.5,116.5C 1445.5,110.974 1581.5,105.474 1717.5,100C 1852.83,92 1988.17,84 2123.5,76C 2312.49,62.9115 2501.49,49.9115 2690.5,37C 2789.26,31.3137 2887.92,27.4804 2986.5,25.5 Z M 3129.5,778.5 C 3194.81,777.392 3259.47,783.225 3323.5,796C 3385.62,808.686 3442.28,833.353 3493.5,870C 3555.65,919.389 3595.15,983.223 3612,1061.5C 3614.87,1074.4 3617.21,1087.4 3619,1100.5C 3620.96,1135.5 3622.96,1170.5 3625,1205.5C 3625.5,2229.17 3625.67,3252.83 3625.5,4276.5C 3605.83,4276.67 3586.16,4276.5 3566.5,4276C 3514.5,4248 3462.5,4220 3410.5,4192C 3311.17,4142.33 3211.83,4092.67 3112.5,4043C 3009.59,4000.14 2903.92,3965.47 2795.5,3939C 2712.53,3924.62 2629.53,3910.45 2546.5,3896.5C 2546.5,3475.5 2546.5,3054.5 2546.5,2633.5C 2635.84,2637.37 2725.18,2641.53 2814.5,2646C 2878.84,2654.08 2943.18,2662.25 3007.5,2670.5C 3008.83,2670.17 3010.17,2669.83 3011.5,2669.5C 3005.09,2617.22 2998.92,2564.88 2993,2512.5C 2989.41,2454.36 2986.25,2396.19 2983.5,2338C 2988.18,2275.8 2993.35,2213.63 2999,2151.5C 3003.01,2092.14 3007.18,2032.81 3011.5,1973.5C 2941.16,1981.58 2870.83,1989.75 2800.5,1998C 2715.86,2002.7 2631.19,2006.87 2546.5,2010.5C 2546.5,1609.5 2546.5,1208.5 2546.5,807.5C 2740.68,791.874 2935.02,782.207 3129.5,778.5 Z"/></g>
</svg>