<svg xmlns="http://www.w3.org/2000/svg" xmlns:xlink="http://www.w3.org/1999/xlink" version="1.1" style="shape-rendering:geometricPrecision; text-rendering:geometricPrecision; image-rendering:optimizeQuality; fill-rule:evenodd; clip-rule:evenodd" viewBox="59.04 2006.33 4904.61 986.61">
<g><path style="opacity:0.987" fill="#000000" d="M 2573.5,2006.5 C 2621.3,2005.4 2668.64,2009.56 2715.5,2019C 2741.58,2025.02 2767.58,2031.35 2793.5,2038C 2808.22,2042.42 2822.89,2042.42 2837.5,2038C 2849,2031.5 2859.67,2023.83 2869.5,2015C 2890.9,2002.88 2911.57,2003.88 2931.5,2018C 2943.45,2031.84 2949.95,2048.01 2951,2066.5C 2959,2143.17 2967,2219.83 2975,2296.5C 2978.48,2316.44 2973.64,2333.94 2960.5,2349C 2942.45,2362.56 2922.79,2365.23 2901.5,2357C 2889.14,2350.31 2878.97,2341.14 2871,2329.5C 2855.59,2303 2839.92,2276.67 2824,2250.5C 2751.03,2138.05 2649.53,2099.88 2519.5,2136C 2449.33,2160.17 2398.83,2206 2368,2273.5C 2342.13,2335.6 2331.79,2400.27 2337,2467.5C 2340.76,2545.45 2364.1,2616.78 2407,2681.5C 2467.51,2763.69 2549.01,2809.53 2651.5,2819C 2743.99,2827.61 2825.32,2801.94 2895.5,2742C 2910.62,2730.28 2927.62,2722.61 2946.5,2719C 2979.74,2716.08 2997.41,2731.25 2999.5,2764.5C 2996.3,2792.88 2985.47,2817.88 2967,2839.5C 2921.87,2890.83 2867.37,2929 2803.5,2954C 2722.86,2984 2639.53,2996.66 2553.5,2992C 2467.68,2989.3 2386.68,2968.3 2310.5,2929C 2194.58,2864.02 2121.42,2766.52 2091,2636.5C 2068.31,2531.03 2073.65,2427.03 2107,2324.5C 2160.18,2180.33 2259.68,2083.83 2405.5,2035C 2460.34,2017.81 2516.34,2008.31 2573.5,2006.5 Z"/></g>
<g><path style="opacity:0.99" fill="#000000" d="M 109.5,2020.5 C 259.834,2020.33 410.167,2020.5 560.5,2021C 633.597,2022.07 704.93,2033.74 774.5,2056C 926.779,2108.62 1017.95,2214.12 1048,2372.5C 1062.17,2457.55 1060.17,2542.22 1042,2626.5C 999.771,2796.4 894.605,2905.9 726.5,2955C 678.726,2968.3 630.059,2975.96 580.5,2978C 422.5,2978.67 264.5,2978.67 106.5,2978C 65.2599,2970.03 50.7599,2945.87 63,2905.5C 65.9091,2898.68 69.5757,2892.34 74,2886.5C 83.2971,2875.53 92.9638,2864.87 103,2854.5C 124.055,2828 134.389,2797.67 134,2763.5C 134.98,2581.49 134.647,2399.49 133,2217.5C 130.618,2192.34 121.952,2169.68 107,2149.5C 94.2512,2136.09 82.2512,2122.09 71,2107.5C 59.0551,2089.88 56.0551,2070.88 62,2050.5C 67.557,2039.28 76.057,2031.11 87.5,2026C 94.8121,2023.51 102.145,2021.67 109.5,2020.5 Z M 487.5,2135.5 C 648.775,2131.28 744.942,2208.28 776,2366.5C 791.321,2452.17 791.321,2537.83 776,2623.5C 766.018,2680.18 743.685,2731.18 709,2776.5C 671.818,2819.95 624.985,2847.12 568.5,2858C 525.496,2865.33 482.496,2865.33 439.5,2858C 420.981,2854.67 405.814,2845.83 394,2831.5C 388.459,2821.88 385.125,2811.54 384,2800.5C 383.008,2597.48 383.341,2394.48 385,2191.5C 389.832,2166.33 404.666,2150.5 429.5,2144C 448.689,2139.19 468.023,2136.35 487.5,2135.5 Z"/></g>
<g><path style="opacity:0.988" fill="#000000" d="M 1216.5,2020.5 C 1438.5,2020.33 1660.5,2020.5 1882.5,2021C 1900.11,2021.07 1916.11,2026.07 1930.5,2036C 1942.14,2046.55 1948.64,2059.72 1950,2075.5C 1953.53,2137.8 1955.86,2200.13 1957,2262.5C 1952.89,2289.78 1937.05,2303.78 1909.5,2304.5C 1890.15,2304.07 1873.99,2296.74 1861,2282.5C 1843.84,2261 1827.84,2238.67 1813,2215.5C 1796.67,2192.76 1776.51,2174.26 1752.5,2160C 1722.43,2145.9 1690.76,2138.23 1657.5,2137C 1619.01,2134.14 1580.67,2135.48 1542.5,2141C 1529.79,2143.19 1518.12,2147.86 1507.5,2155C 1497.93,2163.31 1492.43,2173.81 1491,2186.5C 1490.5,2269.83 1490.33,2353.17 1490.5,2436.5C 1524.17,2436.67 1557.83,2436.5 1591.5,2436C 1619.12,2433.38 1641.95,2421.54 1660,2400.5C 1669.77,2388.73 1678.77,2376.39 1687,2363.5C 1695.31,2351.53 1705.81,2342.03 1718.5,2335C 1737.27,2328.61 1754.1,2331.78 1769,2344.5C 1774.05,2350.63 1777.38,2357.63 1779,2365.5C 1780.15,2408.3 1780.65,2451.14 1780.5,2494C 1780.33,2534.83 1780.17,2575.67 1780,2616.5C 1774.69,2648.79 1755.85,2661.96 1723.5,2656C 1710.42,2651.27 1699.92,2643.1 1692,2631.5C 1682.58,2617.66 1672.91,2603.99 1663,2590.5C 1644.81,2568.99 1621.64,2556.82 1593.5,2554C 1559.17,2553.5 1524.83,2553.33 1490.5,2553.5C 1490.33,2639.5 1490.5,2725.5 1491,2811.5C 1492.29,2827.6 1499.79,2839.76 1513.5,2848C 1528.33,2855.29 1543.99,2859.62 1560.5,2861C 1591.12,2863.42 1621.79,2864.08 1652.5,2863C 1683.81,2862.39 1714.14,2856.73 1743.5,2846C 1764.61,2836.52 1782.78,2823.02 1798,2805.5C 1822.13,2775.9 1844.8,2745.24 1866,2713.5C 1875.49,2702.01 1885.66,2691.18 1896.5,2681C 1915.41,2665.35 1936.41,2661.68 1959.5,2670C 1974.61,2678.7 1982.78,2691.87 1984,2709.5C 1984.67,2714.83 1984.67,2720.17 1984,2725.5C 1973.32,2790.55 1962.32,2855.55 1951,2920.5C 1943.85,2954.66 1923.01,2973.82 1888.5,2978C 1663.5,2978.67 1438.5,2978.67 1213.5,2978C 1172.3,2970.12 1157.8,2945.95 1170,2905.5C 1172.91,2898.68 1176.58,2892.34 1181,2886.5C 1192,2874.17 1203,2861.83 1214,2849.5C 1232.65,2822.88 1241.65,2793.22 1241,2760.5C 1241.98,2580.49 1241.64,2400.49 1240,2220.5C 1238.23,2194.19 1229.57,2170.52 1214,2149.5C 1200.21,2135.38 1187.54,2120.38 1176,2104.5C 1165.52,2087.51 1163.19,2069.51 1169,2050.5C 1174.56,2039.28 1183.06,2031.11 1194.5,2026C 1201.81,2023.51 1209.15,2021.67 1216.5,2020.5 Z"/></g>
<g><path style="opacity:0.987" fill="#000000" d="M 3524.5,2020.5 C 3563.5,2020.33 3602.5,2020.5 3641.5,2021C 3675.1,2024.2 3698.93,2041.03 3713,2071.5C 3809,2309.5 3905,2547.5 4001,2785.5C 4008.57,2802.32 4017.9,2817.99 4029,2832.5C 4047.3,2849.8 4065.3,2867.47 4083,2885.5C 4091.6,2895.7 4097.27,2907.37 4100,2920.5C 4102.7,2953.8 4087.54,2972.96 4054.5,2978C 3949.5,2978.67 3844.5,2978.67 3739.5,2978C 3705.42,2973.26 3689.92,2953.76 3693,2919.5C 3695.58,2911 3699.25,2903 3704,2895.5C 3715.5,2881.66 3725.83,2867 3735,2851.5C 3739.06,2841.87 3740.39,2831.87 3739,2821.5C 3737.11,2811.63 3734.45,2801.96 3731,2792.5C 3720.66,2766.32 3710.83,2739.99 3701.5,2713.5C 3578.5,2713.33 3455.5,2713.5 3332.5,2714C 3321.81,2741.21 3310.98,2768.37 3300,2795.5C 3292.92,2811.25 3290.92,2827.58 3294,2844.5C 3296.3,2851.11 3299.64,2857.11 3304,2862.5C 3316.08,2872.57 3326.74,2883.91 3336,2896.5C 3351.01,2922.27 3347.84,2945.44 3326.5,2966C 3317.47,2972.34 3307.47,2976.34 3296.5,2978C 3231.17,2978.67 3165.83,2978.67 3100.5,2978C 3060.3,2971.47 3045.8,2948.63 3057,2909.5C 3062.89,2897.6 3071.06,2887.43 3081.5,2879C 3099.51,2866.34 3116.34,2852.17 3132,2836.5C 3142.42,2824.02 3151.08,2810.35 3158,2795.5C 3260.08,2548.92 3362.75,2302.59 3466,2056.5C 3479.66,2034.92 3499.16,2022.92 3524.5,2020.5 Z M 3519.5,2231.5 C 3566.33,2354.66 3613,2477.99 3659.5,2601.5C 3564.83,2602.83 3470.17,2602.83 3375.5,2601.5C 3424.07,2478.36 3472.07,2355.02 3519.5,2231.5 Z"/></g>
<g><path style="opacity:0.988" fill="#000000" d="M 4016.5,2020.5 C 4126.17,2020.33 4235.83,2020.5 4345.5,2021C 4385.29,2026.11 4401.45,2048.27 4394,2087.5C 4391.66,2095.84 4388,2103.5 4383,2110.5C 4377.33,2118.17 4371.67,2125.83 4366,2133.5C 4355.36,2152.75 4354.69,2172.42 4364,2192.5C 4370.76,2208.23 4378.76,2223.23 4388,2237.5C 4440.67,2319.5 4493.33,2401.5 4546,2483.5C 4594,2400.83 4642,2318.17 4690,2235.5C 4700.62,2216.92 4709.62,2197.59 4717,2177.5C 4722.14,2161.08 4719.48,2146.08 4709,2132.5C 4701,2123.17 4693,2113.83 4685,2104.5C 4670.35,2084.46 4668.68,2063.46 4680,2041.5C 4690.95,2028.94 4704.79,2022.11 4721.5,2021C 4785.83,2020.33 4850.17,2020.33 4914.5,2021C 4953.26,2026.38 4969.09,2048.22 4962,2086.5C 4956.57,2099.61 4948.4,2110.78 4937.5,2120C 4897.73,2149.44 4864.56,2184.94 4838,2226.5C 4761.08,2359.34 4684.41,2492.34 4608,2625.5C 4606.77,2666.15 4605.94,2706.81 4605.5,2747.5C 4602.09,2798.15 4618.92,2840.48 4656,2874.5C 4664.94,2884.78 4672.27,2896.11 4678,2908.5C 4687.97,2947.16 4673.47,2970.33 4634.5,2978C 4533.17,2978.67 4431.83,2978.67 4330.5,2978C 4289.3,2970.12 4274.8,2945.95 4287,2905.5C 4297.66,2886.49 4311,2869.49 4327,2854.5C 4348.9,2826.79 4359.23,2795.13 4358,2759.5C 4358.67,2716.17 4358.67,2672.83 4358,2629.5C 4265,2488.5 4172,2347.5 4079,2206.5C 4057.13,2177.63 4031.63,2152.46 4002.5,2131C 3990.79,2120.97 3980.96,2109.47 3973,2096.5C 3965.35,2078.62 3965.69,2060.95 3974,2043.5C 3984.86,2029.66 3999.02,2021.99 4016.5,2020.5 Z"/></g>
</svg>