<svg xmlns="http://www.w3.org/2000/svg" xmlns:xlink="http://www.w3.org/1999/xlink" version="1.1" style="shape-rendering:geometricPrecision; text-rendering:geometricPrecision; image-rendering:optimizeQuality; fill-rule:evenodd; clip-rule:evenodd" viewBox="32.36 50.32 1335.16 548.18">
<g><path style="opacity:1" fill="#020202" d="M 228.5,50.5 C 237.423,49.8386 246.09,51.0053 254.5,54C 288.219,67.9358 316.052,89.4358 338,118.5C 339.941,122.048 341.607,125.714 343,129.5C 344.656,214.456 344.989,299.456 344,384.5C 343.335,393.162 340.668,401.162 336,408.5C 309.534,446.305 281.534,482.971 252,518.5C 245.764,525.407 238.931,531.573 231.5,537C 224.56,537.933 217.894,536.933 211.5,534C 196.38,527.273 181.38,520.273 166.5,513C 148.982,504.495 130.649,501.828 111.5,505C 95.7379,510.047 80.0712,515.381 64.5,521C 50.656,523.492 45.4893,517.992 49,504.5C 53.303,490.895 58.9696,477.895 66,465.5C 67.9608,460.323 69.2942,454.99 70,449.5C 70.6667,397.833 70.6667,346.167 70,294.5C 69.5,292.667 68.3333,291.5 66.5,291C 56.7964,290.786 47.1298,290.12 37.5,289C 33.5204,287.522 31.8538,284.688 32.5,280.5C 32.5066,276.481 33.6732,272.815 36,269.5C 44.1699,261.006 53.3366,253.839 63.5,248C 66.7621,245.408 69.2621,242.241 71,238.5C 71.6667,223.5 71.6667,208.5 71,193.5C 70.1327,188.232 68.4661,183.232 66,178.5C 60.3816,170.547 54.3816,162.88 48,155.5C 40.297,145.753 38.6304,135.087 43,123.5C 55.9572,97.209 75.1239,76.709 100.5,62C 109.147,59.1035 116.814,60.7702 123.5,67C 130.206,73.3744 137.206,79.3744 144.5,85C 156.93,90.8272 168.93,89.8272 180.5,82C 191.5,73.6667 202.5,65.3333 213.5,57C 218.489,54.5144 223.489,52.3477 228.5,50.5 Z M 176.5,132.5 C 202.394,133.865 223.894,144.198 241,163.5C 242.439,165.275 243.439,167.275 244,169.5C 245.653,253.798 245.986,338.131 245,422.5C 245.396,426.457 243.896,429.29 240.5,431C 233.479,430.915 226.479,430.248 219.5,429C 199.476,425.462 179.476,421.795 159.5,418C 153.943,416.496 152.11,412.996 154,407.5C 156.942,401.282 159.609,394.949 162,388.5C 162.022,357.439 162.689,326.439 164,295.5C 166.537,292.628 169.37,290.128 172.5,288C 183.898,283.468 194.898,278.134 205.5,272C 214.693,265.421 218.193,256.588 216,245.5C 212.986,241.263 208.819,239.096 203.5,239C 193.124,238.839 182.791,238.172 172.5,237C 168.131,235.959 164.965,233.459 163,229.5C 160.69,205.789 161.024,182.122 164,158.5C 165.135,151.095 167.468,144.095 171,137.5C 172.73,135.598 174.563,133.931 176.5,132.5 Z"/></g>
<g><path style="opacity:1" fill="#020202" d="M 518.5,140.5 C 553.298,143.15 581.132,158.483 602,186.5C 604.557,190.945 606.557,195.611 608,200.5C 608.333,231.5 608.667,262.5 609,293.5C 609.725,295.949 610.725,298.283 612,300.5C 615.81,304.4 619.81,308.066 624,311.5C 624.167,312.167 624.333,312.833 624.5,313.5C 623.057,319.053 620.557,324.053 617,328.5C 608.84,338.315 599.006,345.815 587.5,351C 551.167,351.333 514.833,351.667 478.5,352C 474.414,354.665 472.247,358.498 472,363.5C 469.652,381.473 476.485,394.639 492.5,403C 517.725,415.725 543.391,416.725 569.5,406C 581.252,399.457 593.252,393.457 605.5,388C 609.956,387.133 614.289,387.466 618.5,389C 620.373,391.113 621.373,393.613 621.5,396.5C 619.189,405.454 615.023,413.454 609,420.5C 583.398,449.444 553.231,472.278 518.5,489C 508.523,492.241 498.523,492.241 488.5,489C 479.179,486.115 470.179,482.449 461.5,478C 440.906,466.398 420.573,454.398 400.5,442C 396.813,438.79 393.979,434.956 392,430.5C 390.346,360.544 390.013,290.544 391,220.5C 395.458,213.708 400.958,207.875 407.5,203C 441.485,176.857 478.485,156.023 518.5,140.5 Z M 490.5,213.5 C 510.895,214.957 524.728,225.29 532,244.5C 537.813,258.903 537.813,273.236 532,287.5C 526.737,292.03 520.571,294.197 513.5,294C 500.966,295.204 488.633,294.204 476.5,291C 472.364,288.204 469.864,284.371 469,279.5C 466.85,264.715 467.517,250.049 471,235.5C 473.184,224.01 479.684,216.677 490.5,213.5 Z"/></g>
<g><path style="opacity:1" fill="#020202" d="M 1005.5,152.5 C 1009.58,152.344 1013.58,152.844 1017.5,154C 1041.11,162.972 1063.44,174.305 1084.5,188C 1086.71,189.873 1088.54,192.04 1090,194.5C 1090.33,258.833 1090.67,323.167 1091,387.5C 1091.86,391.544 1093.52,395.211 1096,398.5C 1100.71,403.543 1105.05,408.877 1109,414.5C 1111.55,418.481 1113.05,422.814 1113.5,427.5C 1105.37,450.935 1090.7,469.101 1069.5,482C 1062.97,483.158 1056.97,481.824 1051.5,478C 1043.97,469.802 1035.31,463.135 1025.5,458C 1017,455.966 1009,457.299 1001.5,462C 994.68,467.576 987.68,472.909 980.5,478C 970.061,483.639 959.395,483.972 948.5,479C 926.047,468.214 907.547,452.714 893,432.5C 889.53,427.226 886.864,421.56 885,415.5C 883.378,401.218 882.378,386.884 882,372.5C 880.613,328.508 880.28,284.508 881,240.5C 880.737,225.888 884.07,212.221 891,199.5C 901.701,189.227 913.867,181.06 927.5,175C 952.652,164.111 978.652,156.611 1005.5,152.5 Z M 964.5,222.5 C 982.683,222.344 998.183,228.677 1011,241.5C 1011.86,243.087 1012.53,244.754 1013,246.5C 1013.67,294.167 1013.67,341.833 1013,389.5C 1010.54,400.304 1004.37,403.471 994.5,399C 983.524,394.6 974.024,388.1 966,379.5C 964.561,377.725 963.561,375.725 963,373.5C 962.333,323.833 962.333,274.167 963,224.5C 963.717,223.956 964.217,223.289 964.5,222.5 Z"/></g>
<g><path style="opacity:1" fill="#040404" d="M 1168.5,157.5 C 1173.91,157.229 1179.25,157.729 1184.5,159C 1204.89,169.263 1218.05,185.429 1224,207.5C 1224.33,262.5 1224.67,317.5 1225,372.5C 1233.52,382.646 1244.35,389.146 1257.5,392C 1266.94,393.018 1275.27,390.518 1282.5,384.5C 1283.58,383.335 1284.42,382.002 1285,380.5C 1285.67,328.5 1285.67,276.5 1285,224.5C 1282.87,218.432 1280.53,212.432 1278,206.5C 1276.54,198.955 1277.88,191.955 1282,185.5C 1291.69,172.476 1304.19,163.31 1319.5,158C 1332.64,156.814 1343.47,161.314 1352,171.5C 1358.47,178.765 1363.14,187.099 1366,196.5C 1367.16,248.464 1367.66,300.464 1367.5,352.5C 1367.65,404.864 1367.15,457.197 1366,509.5C 1364.47,514.892 1362.14,519.892 1359,524.5C 1339.53,544.972 1319.7,565.138 1299.5,585C 1293.16,591.42 1285.66,595.92 1277,598.5C 1248.95,589.595 1220.79,581.095 1192.5,573C 1172.72,568.456 1152.89,564.623 1133,561.5C 1131.44,555.136 1131.78,548.803 1134,542.5C 1146.61,518.231 1166.11,502.398 1192.5,495C 1198.83,494.333 1205.17,494.333 1211.5,495C 1224.66,497.718 1237.66,501.052 1250.5,505C 1259.72,507.229 1269.06,507.895 1278.5,507C 1281.49,506.594 1283.66,505.094 1285,502.5C 1285.82,485.926 1285.66,469.426 1284.5,453C 1277.74,450.935 1271.41,451.935 1265.5,456C 1258.61,463.568 1250.61,469.568 1241.5,474C 1233.43,474.4 1225.76,472.733 1218.5,469C 1197.36,458.934 1177.03,447.601 1157.5,435C 1149.16,428.49 1144.33,419.99 1143,409.5C 1142.67,348.833 1142.33,288.167 1142,227.5C 1136.78,219.548 1131.94,211.382 1127.5,203C 1128.51,194.302 1131.68,186.468 1137,179.5C 1145.53,169.097 1156.03,161.764 1168.5,157.5 Z"/></g>
<g><path style="opacity:1" fill="#030303" d="M 728.5,157.5 C 770.501,157.333 812.501,157.5 854.5,158C 860.328,159.31 863.328,162.977 863.5,169C 862.523,175.264 860.356,181.097 857,186.5C 844.572,207.696 830.906,228.029 816,247.5C 810.38,254.127 803.88,259.627 796.5,264C 793.5,264.667 790.5,264.667 787.5,264C 785.59,263.592 784.59,262.425 784.5,260.5C 786.717,253.066 789.217,245.733 792,238.5C 792.784,235.24 792.617,232.073 791.5,229C 789.608,228.027 787.608,227.36 785.5,227C 772.856,225.681 760.189,225.348 747.5,226C 745.671,226.273 744.171,227.107 743,228.5C 741.256,273.485 740.589,318.485 741,363.5C 741.711,375.301 745.045,386.301 751,396.5C 759.193,407.431 770.193,413.097 784,413.5C 790.531,412.879 796.697,411.045 802.5,408C 811.5,401.667 820.5,395.333 829.5,389C 836.916,384.479 844.916,382.812 853.5,384C 856.428,387.257 857.262,391.091 856,395.5C 852.001,404.173 847.001,412.173 841,419.5C 821.872,441.64 800.038,460.473 775.5,476C 765.78,481.949 755.28,485.449 744,486.5C 735.091,485.976 726.591,483.809 718.5,480C 699.04,471.859 681.874,460.359 667,445.5C 664.223,442.282 662.223,438.615 661,434.5C 660.333,365.167 660.333,295.833 661,226.5C 662.517,220.471 664.85,214.804 668,209.5C 681.833,195 695.667,180.5 709.5,166C 715.446,162.022 721.779,159.188 728.5,157.5 Z"/></g>
</svg>