<svg xmlns="http://www.w3.org/2000/svg" xmlns:xlink="http://www.w3.org/1999/xlink" version="1.1" style="shape-rendering:geometricPrecision; text-rendering:geometricPrecision; image-rendering:optimizeQuality; fill-rule:evenodd; clip-rule:evenodd" viewBox="109.5 1940.44 4843.14 1133.16">
<g><path style="opacity:0.99" fill="#000000" d="M 2593.5,1940.5 C 2603.51,1940.33 2613.51,1940.5 2623.5,1941C 2638.12,1943.92 2652.79,1946.59 2667.5,1949C 2689.17,1949.33 2710.83,1949.67 2732.5,1950C 2751.91,1953.7 2770.57,1959.7 2788.5,1968C 2822.22,1982.13 2855.22,1997.8 2887.5,2015C 2912.09,2030.92 2933.59,2050.42 2952,2073.5C 2969.64,2090.14 2986.97,2107.14 3004,2124.5C 3011.05,2133.22 3017.72,2142.22 3024,2151.5C 3045.32,2192.12 3062.32,2234.46 3075,2278.5C 3082.04,2321.56 3064.21,2348.06 3021.5,2358C 2967.91,2363.88 2914.24,2364.88 2860.5,2361C 2848.64,2358.65 2838.8,2352.82 2831,2343.5C 2814.26,2321.02 2798.26,2298.02 2783,2274.5C 2770.33,2256.69 2755.5,2240.86 2738.5,2227C 2730.49,2220.99 2721.82,2215.99 2712.5,2212C 2680.03,2199.97 2647.03,2189.63 2613.5,2181C 2600.26,2177.82 2586.93,2177.16 2573.5,2179C 2543.93,2184.64 2515.93,2194.64 2489.5,2209C 2464.86,2226.63 2442.36,2246.8 2422,2269.5C 2400.17,2293 2381.83,2319 2367,2347.5C 2361.05,2361.34 2356.72,2375.67 2354,2390.5C 2350.42,2430.17 2346.76,2469.84 2343,2509.5C 2342.3,2568.03 2353.96,2624.03 2378,2677.5C 2389.3,2700.77 2402.96,2722.43 2419,2742.5C 2434.83,2760.33 2450.67,2778.17 2466.5,2796C 2480.83,2806.67 2496.5,2815 2513.5,2821C 2556.22,2835.21 2600.05,2843.38 2645,2845.5C 2674.46,2846.43 2701.29,2838.6 2725.5,2822C 2733.35,2815.91 2741.02,2809.57 2748.5,2803C 2769.55,2780.7 2789.05,2757.2 2807,2732.5C 2817.74,2712.61 2826.74,2691.94 2834,2670.5C 2847.67,2640.9 2870.84,2624.4 2903.5,2621C 2910.17,2620.2 2916.84,2619.37 2923.5,2618.5C 2954.5,2619.85 2985.5,2621.35 3016.5,2623C 3030.8,2624.16 3044.8,2626.83 3058.5,2631C 3069.57,2634.41 3077.07,2641.57 3081,2652.5C 3085.12,2667.23 3086.46,2682.23 3085,2697.5C 3081.93,2739.82 3069.59,2779.15 3048,2815.5C 3022.42,2856.77 2991.92,2894.27 2956.5,2928C 2920.36,2962.15 2881.36,2992.49 2839.5,3019C 2820.5,3029.22 2800.5,3036.89 2779.5,3042C 2735.51,3053 2691.18,3062.33 2646.5,3070C 2578.61,3078.14 2511.95,3072.47 2446.5,3053C 2431.49,3045.84 2417.49,3037.17 2404.5,3027C 2384.96,3015.15 2363.96,3006.82 2341.5,3002C 2334.6,2999.55 2327.93,2996.55 2321.5,2993C 2308.61,2983.38 2296.28,2973.05 2284.5,2962C 2262.22,2946.05 2240.22,2929.72 2218.5,2913C 2207.4,2903.9 2196.9,2894.07 2187,2883.5C 2181.25,2876.35 2176.25,2868.68 2172,2860.5C 2165.33,2843.17 2158.67,2825.83 2152,2808.5C 2133.01,2771.86 2117.34,2733.86 2105,2694.5C 2099.47,2672.48 2095.81,2650.14 2094,2627.5C 2088.35,2602.89 2083.01,2578.23 2078,2553.5C 2077.57,2511.02 2079.91,2468.68 2085,2426.5C 2089.19,2392.93 2099.19,2361.26 2115,2331.5C 2132.18,2282.95 2151.52,2235.28 2173,2188.5C 2188.26,2156.29 2207.26,2126.62 2230,2099.5C 2249.95,2076.44 2274.45,2060.27 2303.5,2051C 2308.17,2048.33 2312.83,2045.67 2317.5,2043C 2337.12,2028.38 2356.45,2013.38 2375.5,1998C 2394.33,1983.75 2415.33,1974.09 2438.5,1969C 2449.51,1968.38 2460.51,1968.55 2471.5,1969.5C 2479.27,1969.05 2486.93,1967.88 2494.5,1966C 2514.77,1959.8 2535.11,1953.8 2555.5,1948C 2568.2,1944.94 2580.87,1942.44 2593.5,1940.5 Z"/></g>
<g><path style="opacity:0.992" fill="#000000" d="M 248.5,1944.5 C 260.662,1944.69 272.662,1946.19 284.5,1949C 317.015,1950.32 349.515,1949.82 382,1947.5C 429.406,1951.78 476.906,1954.28 524.5,1955C 570.147,1961.77 615.813,1968.44 661.5,1975C 679.165,1976.02 696.831,1977.02 714.5,1978C 730.467,1980.32 745.134,1985.99 758.5,1995C 774.237,2005.06 790.237,2014.73 806.5,2024C 835.244,2036.87 862.911,2051.54 889.5,2068C 922.471,2093.43 951.304,2122.93 976,2156.5C 994.832,2188.17 1014.17,2219.5 1034,2250.5C 1050.69,2284.25 1060.69,2319.92 1064,2357.5C 1070.25,2376.51 1075.25,2395.85 1079,2415.5C 1082.23,2438.88 1080.56,2461.88 1074,2484.5C 1070.67,2493.83 1067.33,2503.17 1064,2512.5C 1062.05,2519.51 1062.05,2526.51 1064,2533.5C 1079.82,2568.21 1081.49,2603.54 1069,2639.5C 1061.78,2657.95 1055.11,2676.62 1049,2695.5C 1043.6,2717.77 1037.27,2739.77 1030,2761.5C 1025.42,2775.34 1018.75,2788 1010,2799.5C 1000.77,2808.98 991.768,2818.64 983,2828.5C 967.813,2853.55 951.146,2877.55 933,2900.5C 899.744,2932.06 862.244,2957.56 820.5,2977C 800.063,2986.22 779.397,2994.89 758.5,3003C 730.886,3010.15 703.219,3017.15 675.5,3024C 662.823,3029.84 649.823,3034.84 636.5,3039C 624.033,3040.81 611.533,3042.31 599,3043.5C 581.696,3042.62 564.363,3041.95 547,3041.5C 526.046,3043.94 505.046,3045.94 484,3047.5C 467.289,3046.91 450.789,3044.74 434.5,3041C 427.858,3040.17 421.191,3039.67 414.5,3039.5C 385.002,3041.59 355.502,3043.59 326,3045.5C 299.207,3043.93 272.374,3043.09 245.5,3043C 215.618,3040.2 186.285,3034.53 157.5,3026C 133.786,3019.61 120.953,3004.11 119,2979.5C 117.323,2947.12 115.157,2914.78 112.5,2882.5C 112.287,2869.43 113.121,2856.43 115,2843.5C 118.365,2823.37 122.365,2803.37 127,2783.5C 128.877,2774.48 128.877,2765.48 127,2756.5C 118.895,2734.91 113.062,2712.75 109.5,2690C 114.013,2665.54 116.346,2640.87 116.5,2616C 115.497,2587.63 113.83,2559.29 111.5,2531C 113.789,2505.05 115.122,2479.05 115.5,2453C 113.473,2422.03 111.807,2391.03 110.5,2360C 112.595,2305 114.595,2250 116.5,2195C 115.601,2153.32 114.268,2111.65 112.5,2070C 111.694,2048.65 114.527,2027.81 121,2007.5C 129.313,1989.19 142.813,1976.35 161.5,1969C 177.5,1963.67 193.5,1958.33 209.5,1953C 222.403,1949.06 235.403,1946.22 248.5,1944.5 Z M 527.5,2202.5 C 596.623,2202.94 660.623,2221.11 719.5,2257C 767.79,2291.02 797.956,2337.18 810,2395.5C 814.161,2414.63 816.828,2433.96 818,2453.5C 819.492,2490.49 819.826,2527.49 819,2564.5C 813.29,2591.63 803.624,2617.29 790,2641.5C 770.187,2678.98 745.354,2712.82 715.5,2743C 670.905,2774.42 621.238,2791.76 566.5,2795C 555.514,2795.9 544.514,2796.57 533.5,2797C 506.827,2797.26 480.161,2797.76 453.5,2798.5C 422.013,2799.02 399.847,2785.02 387,2756.5C 380.11,2736.94 376.943,2716.77 377.5,2696C 378.966,2667.67 380.3,2639.34 381.5,2611C 380.55,2587.11 378.717,2563.28 376,2539.5C 375.12,2528.68 374.62,2517.85 374.5,2507C 376.74,2485.74 377.74,2464.4 377.5,2443C 376.893,2405 376.226,2367 375.5,2329C 375.433,2306.1 376.6,2283.26 379,2260.5C 385.999,2222.72 408.832,2203.89 447.5,2204C 462.511,2203.27 477.511,2203.44 492.5,2204.5C 504.332,2203.97 515.998,2203.3 527.5,2202.5 Z"/></g>
<g><path style="opacity:0.99" fill="#000000" d="M 4113.5,1953.5 C 4139.2,1955.39 4164.53,1959.56 4189.5,1966C 4203.89,1969.95 4215.73,1977.78 4225,1989.5C 4242.35,2016.86 4260.68,2043.53 4280,2069.5C 4285.33,2078.17 4290.67,2086.83 4296,2095.5C 4304.14,2115.58 4312.47,2135.58 4321,2155.5C 4326.82,2167.82 4333.16,2179.82 4340,2191.5C 4366.51,2230.52 4393.51,2269.18 4421,2307.5C 4430.75,2319.27 4442.25,2328.77 4455.5,2336C 4466.57,2341.01 4477.91,2341.67 4489.5,2338C 4515.15,2329.68 4533.98,2313.51 4546,2289.5C 4551.72,2274.39 4557.72,2259.39 4564,2244.5C 4595.32,2188.51 4627.66,2133.18 4661,2078.5C 4672.41,2059.42 4685.75,2041.75 4701,2025.5C 4712.71,2009.45 4725.54,1994.29 4739.5,1980C 4756.95,1967.07 4776.62,1960.07 4798.5,1959C 4831.83,1956.2 4865.16,1955.2 4898.5,1956C 4913.88,1955.87 4928.21,1959.54 4941.5,1967C 4950.71,1974.36 4954.21,1983.86 4952,1995.5C 4937.29,2042.64 4919.62,2088.64 4899,2133.5C 4882.39,2163.1 4863.06,2190.77 4841,2216.5C 4825.12,2237.6 4813.45,2260.94 4806,2286.5C 4801.94,2295.62 4797.61,2304.62 4793,2313.5C 4779.25,2336 4765.25,2358.34 4751,2380.5C 4741.92,2398.32 4732.59,2415.99 4723,2433.5C 4713.33,2447.17 4703.67,2460.83 4694,2474.5C 4681.16,2498.19 4668.82,2522.19 4657,2546.5C 4646,2563.83 4635,2581.17 4624,2598.5C 4610,2624.17 4601,2651.51 4597,2680.5C 4594.43,2698.41 4592.93,2716.41 4592.5,2734.5C 4594.42,2751.45 4595.75,2768.45 4596.5,2785.5C 4594.31,2809.68 4591.97,2833.85 4589.5,2858C 4592.11,2880.79 4594.27,2903.62 4596,2926.5C 4597.09,2957.08 4593.43,2987.08 4585,3016.5C 4580.89,3025.61 4574.39,3032.44 4565.5,3037C 4547.86,3038.83 4530.19,3040.5 4512.5,3042C 4496.71,3045.96 4480.71,3048.62 4464.5,3050C 4440.67,3049.93 4416.83,3050.76 4393,3052.5C 4379.36,3053.63 4366.86,3050.47 4355.5,3043C 4347.41,3035.99 4342.58,3027.16 4341,3016.5C 4340.59,2990.33 4340.76,2964.17 4341.5,2938C 4340.78,2907.15 4339.78,2876.32 4338.5,2845.5C 4338.62,2819.42 4340.12,2793.42 4343,2767.5C 4345.34,2736.79 4343.01,2706.46 4336,2676.5C 4328.62,2646.33 4320.62,2616.33 4312,2586.5C 4309.03,2578.56 4305.03,2571.22 4300,2564.5C 4278.75,2543.93 4259.75,2521.6 4243,2497.5C 4232.08,2477.32 4221.41,2456.99 4211,2436.5C 4200.75,2420.33 4190.75,2404 4181,2387.5C 4171.88,2365.27 4162.22,2343.27 4152,2321.5C 4133.92,2293 4115.58,2264.66 4097,2236.5C 4055.82,2171.8 4023.49,2102.8 4000,2029.5C 3996.69,2002.62 4007.19,1983.12 4031.5,1971C 4058.06,1960.99 4085.39,1955.16 4113.5,1953.5 Z"/></g>
<g><path style="opacity:0.991" fill="#000000" d="M 1836.5,1958.5 C 1861.52,1958.28 1886.52,1958.78 1911.5,1960C 1926.99,1960.85 1942.32,1962.85 1957.5,1966C 1979.05,1971.22 1994.22,1984.05 2003,2004.5C 2009.35,2020.56 2013.01,2037.23 2014,2054.5C 2018.79,2085.64 2016.79,2116.31 2008,2146.5C 2001.82,2174.01 1984.66,2188.51 1956.5,2190C 1922.49,2190.22 1888.49,2190.72 1854.5,2191.5C 1830.34,2188.45 1806.18,2185.45 1782,2182.5C 1765.06,2182.97 1748.23,2185.14 1731.5,2189C 1717.2,2192.49 1702.87,2195.82 1688.5,2199C 1659.47,2202.79 1630.81,2200.79 1602.5,2193C 1579.62,2189.26 1556.62,2187.26 1533.5,2187C 1503.73,2189.47 1478.9,2201.64 1459,2223.5C 1448.57,2239.54 1443.24,2257.21 1443,2276.5C 1441.4,2297.53 1443.4,2318.2 1449,2338.5C 1455.14,2355.94 1466.3,2369.11 1482.5,2378C 1513.17,2394 1545.83,2401.83 1580.5,2401.5C 1592.52,2401 1604.52,2400.17 1616.5,2399C 1640.95,2395.36 1665.45,2392.2 1690,2389.5C 1701.44,2391.33 1712.94,2391.83 1724.5,2391C 1741.17,2387.67 1757.84,2384.33 1774.5,2381C 1781.47,2380.08 1788.47,2379.58 1795.5,2379.5C 1811.91,2380.68 1828.24,2382.51 1844.5,2385C 1859.01,2385.69 1873.51,2385.53 1888,2384.5C 1904.97,2384.11 1921.47,2386.61 1937.5,2392C 1956.5,2401.45 1966.33,2416.95 1967,2438.5C 1967.93,2473.17 1960.93,2506.17 1946,2537.5C 1939.99,2547.85 1932.82,2557.35 1924.5,2566C 1895.67,2586.17 1863.67,2596.5 1828.5,2597C 1804.62,2593.35 1780.62,2590.85 1756.5,2589.5C 1730.18,2591.05 1703.85,2591.55 1677.5,2591C 1668.11,2590.49 1658.78,2589.49 1649.5,2588C 1639.45,2585.52 1629.28,2583.69 1619,2582.5C 1594.27,2587.85 1569.43,2592.68 1544.5,2597C 1535.47,2597.25 1526.47,2596.75 1517.5,2595.5C 1497.39,2592.82 1480.89,2599.15 1468,2614.5C 1456.36,2631.4 1449.03,2650.07 1446,2670.5C 1440.14,2702.36 1442.14,2733.69 1452,2764.5C 1462.56,2789.37 1481.39,2803.2 1508.5,2806C 1520.8,2807.32 1533.13,2808.15 1545.5,2808.5C 1609.14,2804.77 1672.8,2803.94 1736.5,2806C 1752.64,2807.52 1768.81,2808.68 1785,2809.5C 1825.67,2804.24 1866.5,2802.4 1907.5,2804C 1928.32,2804.48 1948.66,2807.81 1968.5,2814C 1990.43,2822.26 2004.26,2837.76 2010,2860.5C 2011.72,2867.43 2013.05,2874.43 2014,2881.5C 2015.17,2898.89 2016.67,2916.23 2018.5,2933.5C 2017.17,2953.64 2014.67,2973.64 2011,2993.5C 2006.11,3022.39 1989.27,3039.23 1960.5,3044C 1949.52,3045.07 1938.52,3045.9 1927.5,3046.5C 1903.16,3045.37 1878.82,3044.04 1854.5,3042.5C 1831.64,3044.34 1808.8,3046.34 1786,3048.5C 1775.5,3048.08 1765,3047.75 1754.5,3047.5C 1713.85,3049.17 1673.18,3049.67 1632.5,3049C 1614.42,3046.18 1596.42,3042.85 1578.5,3039C 1564.25,3036.69 1549.91,3036.03 1535.5,3037C 1497.51,3044.21 1459.17,3047.21 1420.5,3046C 1392.83,3048.2 1365.16,3050.37 1337.5,3052.5C 1324.94,3052.83 1312.61,3051.33 1300.5,3048C 1273.13,3037.54 1245.47,3027.88 1217.5,3019C 1214.83,3016.66 1211.83,3014.83 1208.5,3013.5C 1202.24,3006.31 1198.07,2997.98 1196,2988.5C 1193.62,2979.59 1191.62,2970.59 1190,2961.5C 1186.46,2937.75 1182.46,2914.08 1178,2890.5C 1176.96,2854.9 1179.63,2819.57 1186,2784.5C 1188.3,2754.62 1191.13,2724.78 1194.5,2695C 1194.33,2691.5 1194.17,2688 1194,2684.5C 1189.2,2663.71 1185.7,2642.71 1183.5,2621.5C 1185.17,2578.84 1186.83,2536.17 1188.5,2493.5C 1186.55,2453 1184.55,2412.5 1182.5,2372C 1183.57,2349.77 1185.4,2327.6 1188,2305.5C 1188.61,2246.07 1191.28,2186.74 1196,2127.5C 1196.53,2094.48 1196.19,2061.48 1195,2028.5C 1201.33,1988.83 1224.5,1967 1264.5,1963C 1302.37,1964.23 1340.2,1963.4 1378,1960.5C 1402.83,1961.92 1427.66,1963.25 1452.5,1964.5C 1522.81,1961.06 1593.15,1960.23 1663.5,1962C 1684.88,1962.99 1706.21,1964.49 1727.5,1966.5C 1763.88,1962.41 1800.21,1959.74 1836.5,1958.5 Z"/></g>
<g><path style="opacity:0.991" fill="#000000" d="M 3573.5,1964.5 C 3592.9,1964.52 3612.24,1965.68 3631.5,1968C 3652.06,1971.32 3672.73,1973.99 3693.5,1976C 3720.41,1978.7 3741.91,1990.87 3758,2012.5C 3768.26,2027.35 3777.26,2043.02 3785,2059.5C 3792.88,2076.6 3800.22,2093.94 3807,2111.5C 3816.82,2143.8 3826.49,2176.13 3836,2208.5C 3846.92,2234.35 3858.92,2259.68 3872,2284.5C 3881.6,2310.96 3890.6,2337.62 3899,2364.5C 3909.2,2388.56 3920.2,2412.22 3932,2435.5C 3933.87,2440.77 3935.54,2446.11 3937,2451.5C 3940.12,2471.99 3945.12,2491.99 3952,2511.5C 3970.53,2547.89 3988.53,2584.56 4006,2621.5C 4019.19,2655.73 4031.19,2690.39 4042,2725.5C 4048.95,2741.4 4056.95,2756.73 4066,2771.5C 4072.22,2784.51 4076.22,2798.18 4078,2812.5C 4079.35,2828.88 4081.02,2845.21 4083,2861.5C 4091.94,2886.98 4101.27,2912.31 4111,2937.5C 4127.8,2987.08 4110.63,3016.92 4059.5,3027C 4051.56,3028.71 4043.56,3030.04 4035.5,3031C 4015.82,3031.54 3996.16,3031.21 3976.5,3030C 3965.32,3028.97 3954.32,3026.97 3943.5,3024C 3925.95,3018.22 3908.62,3011.89 3891.5,3005C 3881.22,3001.04 3873.05,2994.54 3867,2985.5C 3863.1,2978.79 3859.76,2971.79 3857,2964.5C 3851.87,2948.3 3847.2,2931.97 3843,2915.5C 3840.12,2906.18 3836.45,2897.18 3832,2888.5C 3820.83,2870.33 3808.5,2853 3795,2836.5C 3779.16,2818.49 3759.33,2807.66 3735.5,2804C 3721.67,2802.81 3707.84,2801.65 3694,2800.5C 3691.85,2800.4 3690.02,2801.06 3688.5,2802.5C 3683.63,2801.01 3678.63,2800.18 3673.5,2800C 3648.51,2798.58 3623.51,2798.24 3598.5,2799C 3579.86,2801.88 3561.2,2804.55 3542.5,2807C 3521.15,2806.69 3499.81,2806.03 3478.5,2805C 3442,2816.16 3416.16,2839.33 3401,2874.5C 3392.93,2894.46 3385.93,2914.79 3380,2935.5C 3370,2958.17 3360,2980.83 3350,3003.5C 3337.53,3022.82 3319.7,3032.32 3296.5,3032C 3279.5,3032.33 3262.5,3032.67 3245.5,3033C 3220.91,3036.03 3196.24,3038.19 3171.5,3039.5C 3156.8,3039.69 3142.46,3037.52 3128.5,3033C 3120.94,3029.77 3115.77,3024.27 3113,3016.5C 3109.13,3005.39 3108.13,2994.05 3110,2982.5C 3118.59,2950.05 3127.59,2917.72 3137,2885.5C 3163.63,2810.6 3193.97,2737.26 3228,2665.5C 3231.67,2656.17 3235.33,2646.83 3239,2637.5C 3262.4,2567.98 3285.4,2498.31 3308,2428.5C 3316.83,2403.35 3326.83,2378.69 3338,2354.5C 3345.45,2341.94 3352.11,2328.94 3358,2315.5C 3373.45,2275.81 3388.12,2235.81 3402,2195.5C 3413.33,2170.17 3424.67,2144.83 3436,2119.5C 3444.79,2090.13 3456.12,2061.8 3470,2034.5C 3485.46,2006.7 3507.63,1986.2 3536.5,1973C 3548.61,1968.55 3560.94,1965.72 3573.5,1964.5 Z M 3599.5,2367.5 C 3610.66,2366.29 3620.66,2369.12 3629.5,2376C 3641.15,2385.98 3650.98,2397.48 3659,2410.5C 3669.27,2427.71 3677.94,2445.71 3685,2464.5C 3694.01,2490.53 3702.01,2516.87 3709,2543.5C 3718.03,2589.43 3699.7,2616.76 3654,2625.5C 3637.32,2622.54 3620.82,2618.71 3604.5,2614C 3590.29,2610.92 3575.96,2608.59 3561.5,2607C 3533.72,2602.05 3518.72,2585.55 3516.5,2557.5C 3518.1,2540.2 3522.26,2523.54 3529,2507.5C 3542.83,2477.01 3554.5,2445.67 3564,2413.5C 3568.82,2399.01 3576.32,2386.17 3586.5,2375C 3590.6,2371.95 3594.94,2369.45 3599.5,2367.5 Z"/></g>
</svg>