<svg xmlns="http://www.w3.org/2000/svg" xmlns:xlink="http://www.w3.org/1999/xlink" version="1.1" style="shape-rendering:geometricPrecision; text-rendering:geometricPrecision; image-rendering:optimizeQuality; fill-rule:evenodd; clip-rule:evenodd" viewBox="78.82 1940.55 4882.68 1123.73">
<g><path style="opacity:0.995" fill="#000000" d="M 2558.5,1941.5 C 2646.72,1936.38 2731.06,1951.88 2811.5,1988C 2883.35,2023.19 2941.52,2074.02 2986,2140.5C 3010.88,2177.6 3029.88,2217.6 3043,2260.5C 3049.42,2281.47 3051.08,2302.81 3048,2324.5C 3043.62,2348.55 3029.45,2363.05 3005.5,2368C 2960.92,2372.01 2916.25,2374.84 2871.5,2376.5C 2855.44,2376.07 2839.44,2374.9 2823.5,2373C 2789.6,2368.09 2767.76,2349.26 2758,2316.5C 2722.51,2244.13 2664.34,2204.63 2583.5,2198C 2502.52,2198.57 2438.68,2231.74 2392,2297.5C 2366.08,2336.93 2351.08,2380.26 2347,2427.5C 2343.14,2466.75 2341.47,2506.08 2342,2545.5C 2346.98,2638.31 2385.82,2713.15 2458.5,2770C 2523.65,2814.44 2593.98,2824.77 2669.5,2801C 2695.3,2791.86 2716.8,2776.69 2734,2755.5C 2758.76,2721.96 2775.43,2684.63 2784,2643.5C 2790.73,2625.1 2803.57,2613.27 2822.5,2608C 2831.36,2605.58 2840.36,2603.91 2849.5,2603C 2895.71,2597.9 2942.04,2596.24 2988.5,2598C 3005.19,2598.09 3020.85,2602.09 3035.5,2610C 3048.24,2619.64 3055.74,2632.47 3058,2648.5C 3062.06,2678.41 3059.4,2707.74 3050,2736.5C 3008.01,2865.82 2925.18,2958.66 2801.5,3015C 2677.85,3069.44 2550.85,3078.78 2420.5,3043C 2278.45,2999.24 2175.29,2910.41 2111,2776.5C 2066.66,2677.78 2049.32,2574.45 2059,2466.5C 2068.91,2350.76 2105.91,2244.76 2170,2148.5C 2239.34,2048.85 2333.51,1985.02 2452.5,1957C 2487.58,1949.06 2522.91,1943.89 2558.5,1941.5 Z"/></g>
<g><path style="opacity:0.996" fill="#000000" d="M 200.5,1947.5 C 296.496,1948.9 392.496,1950.07 488.5,1951C 580.408,1952.25 668.408,1971.25 752.5,2008C 891.964,2073.68 981.464,2181.18 1021,2330.5C 1047.56,2429.91 1051.9,2530.24 1034,2631.5C 1000.53,2793.03 909.7,2909.53 761.5,2981C 669.583,3021.18 573.416,3039.02 473,3034.5C 399.167,3033.88 325.334,3033.38 251.5,3033C 222.151,3032.85 192.818,3032.19 163.5,3031C 149.466,3030.16 135.799,3027.49 122.5,3023C 106.667,3016.5 95.5,3005.33 89,2989.5C 82.1873,2968.05 79.1873,2946.05 80,2923.5C 78.9139,2638.5 78.5806,2353.5 79,2068.5C 79.3136,2050.42 80.6469,2032.42 83,2014.5C 86.9238,1977.91 107.09,1957.08 143.5,1952C 162.581,1949.55 181.581,1948.05 200.5,1947.5 Z M 436.5,2217.5 C 680.54,2207.37 787.04,2323.37 756,2565.5C 736.385,2667.64 676.551,2732.47 576.5,2760C 559.368,2763.97 542.035,2766.63 524.5,2768C 479.834,2769.98 435.168,2769.98 390.5,2768C 377.075,2766.91 368.908,2759.75 366,2746.5C 363.922,2737.95 362.588,2729.28 362,2720.5C 360.948,2702.52 360.281,2684.52 360,2666.5C 360.667,2530.5 360.667,2394.5 360,2258.5C 360.567,2244.54 366.067,2233.04 376.5,2224C 382.257,2221.65 388.257,2220.31 394.5,2220C 408.658,2219.16 422.658,2218.33 436.5,2217.5 Z"/></g>
<g><path style="opacity:0.995" fill="#000000" d="M 4868.5,1953.5 C 4887.54,1953.09 4906.54,1953.59 4925.5,1955C 4949.53,1959.7 4961.53,1974.37 4961.5,1999C 4961.17,2006.3 4960,2013.47 4958,2020.5C 4937.86,2061.45 4917.19,2102.11 4896,2142.5C 4805.75,2298 4715.75,2453.67 4626,2609.5C 4617.15,2627.04 4610.49,2645.37 4606,2664.5C 4604.34,2673.09 4603.34,2681.76 4603,2690.5C 4603.56,2774.83 4603.56,2859.16 4603,2943.5C 4602.7,2959.52 4602.03,2975.52 4601,2991.5C 4600.14,3007.05 4593.64,3019.55 4581.5,3029C 4577,3031.42 4572.67,3034.08 4568.5,3037C 4555.05,3040.22 4541.38,3041.89 4527.5,3042C 4477.82,3042.85 4428.16,3042.52 4378.5,3041C 4355.61,3038.15 4341.11,3025.65 4335,3003.5C 4333.57,2997.57 4332.57,2991.57 4332,2985.5C 4330.92,2951.68 4330.42,2917.85 4330.5,2884C 4331.01,2829.17 4331.18,2774.33 4331,2719.5C 4331.05,2689.83 4325.72,2661.16 4315,2633.5C 4306.62,2611.41 4296.62,2590.08 4285,2569.5C 4196.23,2418.31 4109.23,2265.97 4024,2112.5C 4008.08,2082.99 3992.41,2053.32 3977,2023.5C 3969.95,2004.82 3971.28,1986.82 3981,1969.5C 3986.76,1962.06 3994.26,1957.56 4003.5,1956C 4057.84,1954.17 4112.17,1954.17 4166.5,1956C 4178.91,1956.67 4191.24,1958.01 4203.5,1960C 4217.15,1963.25 4228.32,1970.41 4237,1981.5C 4243.58,1991 4249.92,2000.66 4256,2010.5C 4294.09,2075.01 4331.42,2140.01 4368,2205.5C 4391.68,2246.2 4417.34,2285.53 4445,2323.5C 4450.24,2329.41 4456.07,2334.58 4462.5,2339C 4469.43,2341.64 4475.77,2340.64 4481.5,2336C 4491.09,2325.98 4499.59,2315.15 4507,2303.5C 4522.25,2280 4537.25,2256.34 4552,2232.5C 4590.27,2167.24 4628.94,2102.24 4668,2037.5C 4678.51,2021.15 4689.51,2005.15 4701,1989.5C 4709.4,1978.09 4719.9,1969.26 4732.5,1963C 4738.32,1960.71 4744.32,1959.05 4750.5,1958C 4789.96,1955.69 4829.29,1954.19 4868.5,1953.5 Z"/></g>
<g><path style="opacity:0.996" fill="#000000" d="M 1874.5,1957.5 C 1892.01,1957.12 1909.35,1958.62 1926.5,1962C 1947,1967.83 1960.17,1981 1966,2001.5C 1970.3,2019.25 1972.97,2037.25 1974,2055.5C 1976.26,2087.87 1975.93,2120.2 1973,2152.5C 1971.3,2186.2 1953.8,2205.03 1920.5,2209C 1792.17,2211.2 1663.84,2213.2 1535.5,2215C 1513.16,2215.35 1490.82,2216.02 1468.5,2217C 1446.02,2217.48 1431.19,2228.31 1424,2249.5C 1420.61,2279.53 1420.95,2309.53 1425,2339.5C 1426.19,2349.41 1431.36,2356.24 1440.5,2360C 1447.67,2362.2 1455,2363.53 1462.5,2364C 1505.62,2366.78 1548.79,2367.95 1592,2367.5C 1671.5,2366.53 1751,2366.03 1830.5,2366C 1846.18,2366.28 1861.85,2366.95 1877.5,2368C 1901.86,2369.05 1917.36,2381.21 1924,2404.5C 1925.39,2409.76 1926.39,2415.09 1927,2420.5C 1930.16,2448.42 1932.33,2476.42 1933.5,2504.5C 1934.35,2525.76 1930.51,2546.09 1922,2565.5C 1913.3,2580.45 1900.47,2589.95 1883.5,2594C 1875.93,2595.71 1868.26,2596.71 1860.5,2597C 1727.85,2600.44 1595.18,2602.11 1462.5,2602C 1442.18,2602.01 1430.01,2611.84 1426,2631.5C 1422.8,2664.46 1422.13,2697.46 1424,2730.5C 1424.46,2743.48 1427.46,2755.81 1433,2767.5C 1436.52,2770.84 1440.69,2773.01 1445.5,2774C 1452.71,2775.98 1460.05,2777.31 1467.5,2778C 1610.5,2778.33 1753.5,2778.67 1896.5,2779C 1943.8,2781.97 1970.97,2806.81 1978,2853.5C 1980.37,2899.94 1979.04,2946.28 1974,2992.5C 1966.85,3014.31 1952.02,3027.81 1929.5,3033C 1922.23,3034.47 1914.9,3035.47 1907.5,3036C 1689.5,3036.79 1471.5,3037.12 1253.5,3037C 1229.86,3037.61 1207.53,3032.61 1186.5,3022C 1173.31,3012.8 1163.81,3000.63 1158,2985.5C 1149.95,2961.84 1145.62,2937.51 1145,2912.5C 1145.17,2731.5 1146.17,2550.5 1148,2369.5C 1148.64,2280.49 1149.97,2191.49 1152,2102.5C 1152.48,2076.09 1154.14,2049.75 1157,2023.5C 1160.76,1990.41 1178.93,1970.91 1211.5,1965C 1217.8,1964.06 1224.14,1963.39 1230.5,1963C 1445.33,1961.36 1660,1959.53 1874.5,1957.5 Z"/></g>
<g><path style="opacity:0.996" fill="#000000" d="M 3572.5,1964.5 C 3603.52,1964.77 3634.52,1965.61 3665.5,1967C 3693.24,1968.95 3715.74,1980.79 3733,2002.5C 3752.56,2029.95 3768.23,2059.62 3780,2091.5C 3835.7,2243.28 3893.37,2394.28 3953,2544.5C 4009.23,2670.51 4055.56,2800.18 4092,2933.5C 4104.59,2982.21 4086.09,3010.04 4036.5,3017C 3992.31,3022.61 3947.97,3024.28 3903.5,3022C 3862.88,3019.47 3834.71,2999.64 3819,2962.5C 3803.44,2922.7 3786.77,2883.37 3769,2844.5C 3763.78,2830.21 3755.28,2818.38 3743.5,2809C 3736.6,2805.14 3729.27,2802.48 3721.5,2801C 3710.74,2799.26 3699.91,2798.43 3689,2798.5C 3613.9,2803.38 3538.73,2805.21 3463.5,2804C 3447.05,2806.14 3433.55,2813.64 3423,2826.5C 3406.6,2847.94 3393.27,2871.28 3383,2896.5C 3372.21,2926 3361.88,2955.66 3352,2985.5C 3341.28,3008.87 3323.11,3022.37 3297.5,3026C 3280.94,3028.66 3264.28,3029.99 3247.5,3030C 3216.5,3030.67 3185.5,3030.67 3154.5,3030C 3139.11,3029.96 3124.11,3027.63 3109.5,3023C 3088.85,3011.2 3080.35,2993.36 3084,2969.5C 3167.76,2727.54 3257.43,2487.87 3353,2250.5C 3380.89,2182.17 3409.55,2114.17 3439,2046.5C 3447.16,2029.5 3456.83,2013.5 3468,1998.5C 3479.92,1984.12 3495.09,1975.29 3513.5,1972C 3533.1,1967.78 3552.77,1965.28 3572.5,1964.5 Z M 3588.5,2371.5 C 3593.71,2371.94 3598.37,2373.77 3602.5,2377C 3613.8,2387.75 3621.97,2400.58 3627,2415.5C 3643.47,2459.24 3660.14,2502.91 3677,2546.5C 3679.77,2555.76 3680.11,2565.09 3678,2574.5C 3674.35,2582.59 3668.18,2587.75 3659.5,2590C 3652.45,2591.77 3645.28,2592.6 3638,2592.5C 3600.19,2590.9 3562.35,2590.07 3524.5,2590C 3515.89,2589.7 3509.06,2586.2 3504,2579.5C 3503.34,2577.2 3502.84,2574.87 3502.5,2572.5C 3518.31,2505.88 3542.48,2442.55 3575,2382.5C 3578.21,2377.11 3582.71,2373.44 3588.5,2371.5 Z"/></g>
</svg>